<svg width="375" height="812" viewBox="0 0 375 812" fill="none" xmlns="http://www.w3.org/2000/svg">
<g clip-path="url(#clip0_324_1205)">
<rect width="375" height="812" rx="40" fill="#3B68FF"/>
<rect opacity="0.44" width="375" height="812" fill="url(#paint0_radial_324_1205)"/>
<path fill-rule="evenodd" clip-rule="evenodd" d="M141.571 336.353H126.407C123.878 330.763 118.253 326.875 111.72 326.875C102.821 326.875 95.6074 334.088 95.6074 342.987C95.6074 351.885 102.821 359.099 111.72 359.099C118.253 359.099 123.878 355.21 126.407 349.621H141.571C141.261 347.455 141.101 345.239 141.101 342.987C141.101 340.734 141.261 338.519 141.571 336.353Z" fill="white"/>
<path fill-rule="evenodd" clip-rule="evenodd" d="M180.908 388.48L180.908 403.645C175.318 406.173 171.43 411.799 171.43 418.332C171.43 427.231 178.643 434.444 187.542 434.444C196.441 434.444 203.654 427.231 203.654 418.332C203.654 411.799 199.766 406.173 194.177 403.645L194.177 388.48C192.01 388.79 189.794 388.951 187.542 388.951C185.289 388.951 183.074 388.79 180.908 388.48Z" fill="white"/>
<path fill-rule="evenodd" clip-rule="evenodd" d="M180.908 297.964L180.908 282.8C175.318 280.271 171.43 274.646 171.43 268.112C171.43 259.214 178.643 252 187.542 252C196.441 252 203.654 259.214 203.654 268.112C203.654 274.646 199.766 280.271 194.177 282.8L194.177 297.964C192.01 297.654 189.794 297.494 187.542 297.494C185.289 297.494 183.074 297.654 180.908 297.964Z" fill="white"/>
<path fill-rule="evenodd" clip-rule="evenodd" d="M233.036 336.353H248.199C250.728 330.763 256.353 326.875 262.887 326.875C271.785 326.875 278.999 334.088 278.999 342.987C278.999 351.885 271.785 359.099 262.887 359.099C256.353 359.099 250.728 355.21 248.2 349.621H233.035C233.345 347.455 233.506 345.239 233.506 342.987C233.506 340.734 233.345 338.519 233.036 336.353Z" fill="white"/>
<path fill-rule="evenodd" clip-rule="evenodd" d="M160.156 306.913L151.311 298.069C153.096 293.334 152.083 287.784 148.272 283.973C143.082 278.783 134.666 278.783 129.476 283.973C124.285 289.164 124.285 297.579 129.476 302.77C133.287 306.581 138.836 307.593 143.571 305.808L152.416 314.653C153.499 313.208 154.697 311.823 156.011 310.509C157.325 309.195 158.711 307.997 160.156 306.913Z" fill="white"/>
<path fill-rule="evenodd" clip-rule="evenodd" d="M216.937 306.913L225.782 298.068C223.997 293.333 225.01 287.784 228.821 283.973C234.011 278.783 242.426 278.783 247.617 283.973C252.807 289.164 252.807 297.579 247.617 302.77C243.806 306.581 238.256 307.593 233.521 305.808L224.677 314.653C223.594 313.208 222.395 311.823 221.081 310.509C219.767 309.195 218.382 307.996 216.937 306.913Z" fill="white"/>
<path fill-rule="evenodd" clip-rule="evenodd" d="M152.588 372.21L143.743 381.055C139.008 379.269 133.458 380.282 129.647 384.093C124.457 389.284 124.457 397.699 129.647 402.89C134.838 408.08 143.253 408.08 148.443 402.89C152.254 399.079 153.267 393.529 151.482 388.794L160.327 379.95C158.883 378.866 157.497 377.668 156.183 376.354C154.869 375.04 153.671 373.655 152.588 372.21Z" fill="white"/>
<path fill-rule="evenodd" clip-rule="evenodd" d="M224.504 372.21L233.349 381.055C238.084 379.269 243.634 380.282 247.445 384.093C252.635 389.284 252.635 397.699 247.445 402.89C242.254 408.08 233.839 408.08 228.648 402.89C224.837 399.079 223.825 393.529 225.61 388.794L216.765 379.95C218.209 378.866 219.595 377.668 220.909 376.354C222.223 375.04 223.421 373.655 224.504 372.21Z" fill="white"/>
<path fill-rule="evenodd" clip-rule="evenodd" d="M187.542 384.689C210.574 384.689 229.245 366.019 229.245 342.987C229.245 319.955 210.574 301.285 187.542 301.285C164.511 301.285 145.84 319.955 145.84 342.987C145.84 366.019 164.511 384.689 187.542 384.689ZM185.647 311.71C185.647 310.663 186.496 309.815 187.543 309.815C188.589 309.815 189.438 310.663 189.438 311.71V369.525C189.438 370.572 188.589 371.42 187.543 371.42C186.496 371.42 185.647 370.572 185.647 369.525V311.71ZM200.48 356.972C198.174 354.888 197.021 352.458 197.021 349.68H201.683C201.733 351.218 202.435 352.656 203.839 353.896C205.243 355.136 206.997 355.732 209.103 355.732C213.264 355.732 215.621 353.549 216.072 350.722C216.323 347.349 213.816 345.415 210.206 344.621L205.744 343.53C200.129 342.091 197.321 339.115 197.321 334.602C197.321 331.774 198.424 329.493 200.63 327.707C202.836 325.872 205.443 324.979 208.501 324.979C211.71 324.979 214.367 325.921 216.473 327.757C218.579 329.592 219.631 331.973 219.631 334.998H214.969C214.969 331.626 212.262 329.393 208.451 329.393C206.697 329.393 205.193 329.889 203.889 330.832C202.636 331.774 201.984 333.014 201.984 334.552C201.984 336.933 203.638 338.52 206.897 339.314L211.409 340.405C217.977 342.042 221.286 345.762 220.634 351.119C220.333 353.698 219.13 355.831 217.075 357.517C215.019 359.204 212.362 360.047 209.103 360.047C205.644 360.047 202.786 359.005 200.48 356.972ZM163.621 361.943L153.422 327.823H158.156L165.768 354.168L173.38 327.823H178.065L167.964 361.943H163.621Z" fill="white"/>
<path d="M104.221 528.319C105.746 528.319 107.738 528.543 110.196 528.992L110.111 532.143C107.795 531.695 105.831 531.47 104.221 531.47C102.582 531.47 101.396 531.793 100.661 532.437C99.9551 533.081 99.6019 534.061 99.6019 535.378V536.47C99.6019 537.171 99.6867 537.731 99.8562 538.151C100.054 538.543 100.393 538.893 100.873 539.201C101.353 539.481 102.074 539.776 103.034 540.084L106.975 541.386C108.868 542.03 110.196 542.885 110.959 543.949C111.75 545.013 112.145 546.568 112.145 548.613V549.411C112.145 551.904 111.411 553.767 109.942 554.999C108.501 556.232 106.128 556.848 102.823 556.848C101.212 556.848 99.1499 556.568 96.6356 556.008L96.7204 552.772C99.0652 553.333 101.071 553.613 102.738 553.613C104.857 553.613 106.354 553.305 107.23 552.688C108.105 552.044 108.543 551.05 108.543 549.705V548.319C108.543 547.338 108.317 546.596 107.865 546.092C107.441 545.56 106.679 545.112 105.577 544.747L101.212 543.319C99.2629 542.675 97.9069 541.848 97.1441 540.84C96.3814 539.804 96 538.249 96 536.176V535.714C96 533.277 96.6498 531.442 97.9493 530.21C99.2771 528.95 101.368 528.319 104.221 528.319Z" fill="white"/>
<path d="M125.623 528.319C128.787 528.319 131.118 529.104 132.615 530.672C134.112 532.241 134.861 534.468 134.861 537.353V547.815C134.861 550.7 134.112 552.926 132.615 554.495C131.118 556.064 128.787 556.848 125.623 556.848C122.459 556.848 120.128 556.064 118.631 554.495C117.134 552.926 116.385 550.7 116.385 547.815V537.353C116.385 534.468 117.134 532.241 118.631 530.672C120.128 529.104 122.459 528.319 125.623 528.319ZM125.623 531.47C123.758 531.47 122.346 531.933 121.385 532.857C120.453 533.781 119.987 535.14 119.987 536.933V548.193C119.987 549.985 120.453 551.358 121.385 552.31C122.346 553.235 123.758 553.697 125.623 553.697C127.488 553.697 128.886 553.235 129.818 552.31C130.779 551.358 131.259 549.985 131.259 548.193V536.975C131.259 535.182 130.779 533.823 129.818 532.899C128.886 531.947 127.488 531.47 125.623 531.47Z" fill="white"/>
<path d="M144.615 528.824V553.193H155.632V556.344H141.013V528.824H144.615Z" fill="white"/>
<path d="M176.446 547.646C176.446 550.616 175.683 552.898 174.157 554.495C172.632 556.064 170.386 556.848 167.419 556.848C164.481 556.848 162.236 556.078 160.682 554.537C159.156 552.996 158.393 550.728 158.393 547.73V528.824H161.995V548.193C161.995 549.985 162.462 551.358 163.394 552.31C164.354 553.235 165.696 553.697 167.419 553.697C169.171 553.697 170.513 553.235 171.445 552.31C172.377 551.358 172.844 549.985 172.844 548.193V528.824H176.446V547.646Z" fill="white"/>
<path d="M200.607 528.824V532.059H192.556V556.344H188.954V532.059H180.902V528.824H200.607Z" fill="white"/>
<path d="M208.675 528.824V556.344H205.073V528.824H208.675Z" fill="white"/>
<path d="M224.072 528.319C227.236 528.319 229.567 529.104 231.064 530.672C232.562 532.241 233.31 534.468 233.31 537.353V547.815C233.31 550.7 232.562 552.926 231.064 554.495C229.567 556.064 227.236 556.848 224.072 556.848C220.908 556.848 218.578 556.064 217.08 554.495C215.583 552.926 214.834 550.7 214.834 547.815V537.353C214.834 534.468 215.583 532.241 217.08 530.672C218.578 529.104 220.908 528.319 224.072 528.319ZM224.072 531.47C222.208 531.47 220.795 531.933 219.835 532.857C218.902 533.781 218.436 535.14 218.436 536.933V548.193C218.436 549.985 218.902 551.358 219.835 552.31C220.795 553.235 222.208 553.697 224.072 553.697C225.937 553.697 227.335 553.235 228.268 552.31C229.228 551.358 229.708 549.985 229.708 548.193V536.975C229.708 535.182 229.228 533.823 228.268 532.899C227.335 531.947 225.937 531.47 224.072 531.47Z" fill="white"/>
<path d="M252.175 556.344L243.022 533.109V556.344H239.462V528.824H245.225L254.209 552.058V528.824H257.768V556.344H252.175Z" fill="white"/>
<path d="M271.076 528.319C272.601 528.319 274.593 528.543 277.051 528.992L276.966 532.143C274.649 531.695 272.686 531.47 271.076 531.47C269.437 531.47 268.251 531.793 267.516 532.437C266.81 533.081 266.457 534.061 266.457 535.378V536.47C266.457 537.171 266.542 537.731 266.711 538.151C266.909 538.543 267.248 538.893 267.728 539.201C268.208 539.481 268.929 539.776 269.889 540.084L273.83 541.386C275.723 542.03 277.051 542.885 277.813 543.949C278.605 545.013 279 546.568 279 548.613V549.411C279 551.904 278.265 553.767 276.796 554.999C275.356 556.232 272.983 556.848 269.677 556.848C268.067 556.848 266.005 556.568 263.49 556.008L263.575 552.772C265.92 553.333 267.926 553.613 269.593 553.613C271.711 553.613 273.209 553.305 274.084 552.688C274.96 552.044 275.398 551.05 275.398 549.705V548.319C275.398 547.338 275.172 546.596 274.72 546.092C274.296 545.56 273.534 545.112 272.432 544.747L268.067 543.319C266.118 542.675 264.762 541.848 263.999 540.84C263.236 539.804 262.855 538.249 262.855 536.176V535.714C262.855 533.277 263.505 531.442 264.804 530.21C266.132 528.95 268.222 528.319 271.076 528.319Z" fill="white"/>
<path d="M137.009 465.989L120.851 519.97H111.665L96 465.989H103.382L116.258 513.212L129.627 465.989H137.009Z" fill="white"/>
<path d="M151.228 465.989V519.97H144.257V465.989H151.228Z" fill="white"/>
<path d="M177.831 465C184.283 465 189.04 466.264 192.102 468.791C195.164 471.318 196.695 474.862 196.695 479.422V481.483C196.695 484.669 195.82 487.499 194.07 489.971C192.321 492.389 189.805 494.092 186.525 495.081L200.468 519.97H192.676L179.635 496.564C179.198 496.619 178.323 496.647 177.011 496.647C174.824 496.647 172.664 496.564 170.531 496.399V519.97H163.56V465.33C169.684 465.11 174.441 465 177.831 465ZM177.667 470.934C175.862 470.934 173.484 470.989 170.531 471.099V490.548C173.484 490.823 175.944 490.96 177.913 490.96C185.787 490.96 189.723 487.746 189.723 481.318V479.67C189.723 476.703 188.767 474.505 186.853 473.076C184.939 471.648 181.877 470.934 177.667 470.934Z" fill="white"/>
<path d="M226.982 465.989L243.468 519.97H235.922L232.395 507.443H212.629L209.102 519.97H201.967L218.37 465.989H226.982ZM222.553 472.417L214.351 501.179H230.673L222.553 472.417Z" fill="white"/>
<path d="M257.675 465.989V513.789H279V519.97H250.704V465.989H257.675Z" fill="white"/>
</g>
<defs>
<radialGradient id="paint0_radial_324_1205" cx="0" cy="0" r="1" gradientUnits="userSpaceOnUse" gradientTransform="translate(187.5 313.5) scale(319.5 319.5)">
<stop stop-color="#73B3FF"/>
<stop offset="1" stop-color="#3B68FF"/>
</radialGradient>
<clipPath id="clip0_324_1205">
<rect width="375" height="812" rx="40" fill="white"/>
</clipPath>
</defs>
</svg>
