<svg width="21" height="18" viewBox="0 0 21 18" fill="none" xmlns="http://www.w3.org/2000/svg">
<path d="M8.01094 11.1172C7.43594 10.5432 7.08594 9.76317 7.08594 8.88817C7.08594 7.13517 8.49794 5.72217 10.2499 5.72217C11.1169 5.72217 11.9149 6.07317 12.4799 6.64717" stroke="#130F26" stroke-width="1.5" stroke-linecap="round" stroke-linejoin="round"/>
<path d="M13.3554 9.44922C13.1234 10.7392 12.1074 11.7572 10.8184 11.9912" stroke="#130F26" stroke-width="1.5" stroke-linecap="round" stroke-linejoin="round"/>
<path d="M4.905 14.2227C3.318 12.9767 1.974 11.1567 1 8.88772C1.984 6.60872 3.337 4.77872 4.934 3.52272C6.521 2.26672 8.352 1.58472 10.25 1.58472C12.159 1.58472 13.989 2.27672 15.586 3.54172" stroke="#130F26" stroke-width="1.5" stroke-linecap="round" stroke-linejoin="round"/>
<path d="M17.6978 5.74121C18.3858 6.65521 18.9908 7.71021 19.4998 8.88721C17.5328 13.4442 14.0568 16.1892 10.2498 16.1892C9.38677 16.1892 8.53577 16.0492 7.71777 15.7762" stroke="#130F26" stroke-width="1.5" stroke-linecap="round" stroke-linejoin="round"/>
<path d="M18.1373 1L2.36328 16.774" stroke="#130F26" stroke-width="1.5" stroke-linecap="round" stroke-linejoin="round"/>
</svg>
