<svg width="12" height="21" viewBox="0 0 12 21" fill="none" xmlns="http://www.w3.org/2000/svg">
<path fill-rule="evenodd" clip-rule="evenodd" d="M5.38596 11.5075L2.57585 20.0725C2.54143 20.1774 2.5982 20.2904 2.70266 20.325C2.77909 20.3503 2.86317 20.3269 2.91575 20.2657L11.8791 9.83416C12.0587 9.6251 12.0356 9.30937 11.8274 9.12896C11.737 9.0506 11.6216 9.0075 11.5021 9.0075H6.61404L9.42415 0.442532C9.45857 0.337624 9.4018 0.224555 9.29734 0.189987C9.22091 0.164693 9.13683 0.188086 9.08425 0.249275L0.120948 10.6808C-0.0586874 10.8899 -0.0355623 11.2056 0.172599 11.386C0.263005 11.4644 0.378442 11.5075 0.497857 11.5075H5.38596V11.5075Z" fill="white"/>
</svg>
