<svg width="156" height="94" viewBox="0 0 156 94" fill="none" xmlns="http://www.w3.org/2000/svg">
<path d="M143.326 3.58578L155.249 17.3287V94H0.249023V39.7515C1.90789 45.538 6.46976 46.0202 8.54334 45.538C9.75292 45.0558 13.1052 42.7894 16.8377 37.5816C20.5701 32.3737 23.9224 36.8582 25.132 39.7515L28.7607 50.6012C29.6247 53.7356 32.7005 58.2683 38.0918 51.3245C44.831 42.6448 46.9045 50.6012 46.9045 54.2178C46.9045 57.111 50.3605 65.0675 52.0885 68.684C62.9748 86.7669 70.7507 73.7472 74.3795 55.6644C77.2825 41.1981 86.9937 36.6171 91.4865 36.1349C94.7696 35.8938 102.891 34.833 109.112 32.5184C116.888 29.6251 118.443 23.1153 118.443 18.7754C118.443 15.3035 121.208 8.64899 122.59 5.75572C128.396 -3.50269 138.833 0.451424 143.326 3.58578Z" fill="url(#paint0_linear_341_279)"/>
<defs>
<linearGradient id="paint0_linear_341_279" x1="77.749" y1="0" x2="77.749" y2="94" gradientUnits="userSpaceOnUse">
<stop stop-color="#EE8E92" stop-opacity="0.29"/>
<stop offset="1" stop-color="#EE8E92" stop-opacity="0"/>
</linearGradient>
</defs>
</svg>
