<svg width="184" height="183" viewBox="0 0 184 183" fill="none" xmlns="http://www.w3.org/2000/svg">
<path fill-rule="evenodd" clip-rule="evenodd" d="M46.571 84.3525H31.4071C28.8785 78.7633 23.2532 74.8745 16.7197 74.8745C7.82113 74.8745 0.607422 82.0882 0.607422 90.9868C0.607422 99.8853 7.82113 107.099 16.7197 107.099C23.2531 107.099 28.8782 103.21 31.4069 97.6214H46.571C46.2611 95.4546 46.1007 93.2394 46.1007 90.9868C46.1007 88.7343 46.2611 86.5193 46.571 84.3525Z" fill="white"/>
<path fill-rule="evenodd" clip-rule="evenodd" d="M85.9076 136.48L85.9076 151.645C80.3184 154.173 76.4297 159.799 76.4297 166.332C76.4297 175.231 83.6434 182.444 92.542 182.444C101.441 182.444 108.654 175.231 108.654 166.332C108.654 159.799 104.766 154.173 99.1765 151.645L99.1765 136.48C97.0096 136.79 94.7945 136.951 92.5419 136.951C90.2894 136.951 88.0744 136.79 85.9076 136.48Z" fill="white"/>
<path fill-rule="evenodd" clip-rule="evenodd" d="M85.9076 45.9639L85.9076 30.7996C80.3184 28.271 76.4297 22.6458 76.4297 16.1123C76.4297 7.21371 83.6434 3.15321e-07 92.542 7.0429e-07C101.441 1.09326e-06 108.654 7.21371 108.654 16.1123C108.654 22.6457 104.766 28.2709 99.1765 30.7995L99.1765 45.964C97.0096 45.654 94.7945 45.4936 92.5419 45.4936C90.2894 45.4936 88.0744 45.654 85.9076 45.9639Z" fill="white"/>
<path fill-rule="evenodd" clip-rule="evenodd" d="M138.036 84.3525H153.199C155.728 78.7633 161.353 74.8745 167.887 74.8745C176.785 74.8745 183.999 82.0882 183.999 90.9868C183.999 99.8853 176.785 107.099 167.887 107.099C161.353 107.099 155.728 103.21 153.2 97.6214H138.035C138.345 95.4546 138.506 93.2394 138.506 90.9868C138.506 88.7343 138.345 86.5193 138.036 84.3525Z" fill="white"/>
<path fill-rule="evenodd" clip-rule="evenodd" d="M65.1556 54.9134L56.3108 46.0686C58.096 41.3336 57.0831 35.7842 53.2722 31.9733C48.0817 26.7829 39.6663 26.7829 34.4759 31.9733C29.2854 37.1638 29.2854 45.5792 34.4759 50.7697C38.2868 54.5806 43.8362 55.5934 48.5712 53.8083L57.4159 62.653C58.499 61.2084 59.6975 59.8228 61.0113 58.509C62.3252 57.1951 63.7109 55.9965 65.1556 54.9134Z" fill="white"/>
<path fill-rule="evenodd" clip-rule="evenodd" d="M121.937 54.9133L130.782 46.0683C128.997 41.3333 130.01 35.7842 133.821 31.9733C139.011 26.7829 147.426 26.7829 152.617 31.9733C157.807 37.1638 157.807 45.5792 152.617 50.7697C148.806 54.5807 143.256 55.5935 138.521 53.8082L129.677 62.6528C128.594 61.2083 127.395 59.8228 126.081 58.509C124.767 57.195 123.382 55.9964 121.937 54.9133Z" fill="white"/>
<path fill-rule="evenodd" clip-rule="evenodd" d="M57.5876 120.21L48.7427 129.055C44.0076 127.269 38.4581 128.282 34.6472 132.093C29.4567 137.284 29.4567 145.699 34.6472 150.89C39.8376 156.08 48.253 156.08 53.4435 150.89C57.2543 147.079 58.2672 141.529 56.4822 136.794L65.3272 127.95C63.8826 126.866 62.4971 125.668 61.1833 124.354C59.8693 123.04 58.6708 121.655 57.5876 120.21Z" fill="white"/>
<path fill-rule="evenodd" clip-rule="evenodd" d="M129.504 120.21L138.349 129.055C143.084 127.269 148.634 128.282 152.445 132.093C157.635 137.284 157.635 145.699 152.445 150.89C147.254 156.08 138.839 156.08 133.648 150.89C129.837 147.079 128.825 141.529 130.61 136.794L121.765 127.95C123.209 126.866 124.595 125.668 125.909 124.354C127.223 123.04 128.421 121.655 129.504 120.21Z" fill="white"/>
<path fill-rule="evenodd" clip-rule="evenodd" d="M92.5422 132.689C115.574 132.689 134.245 114.019 134.245 90.987C134.245 67.9555 115.574 49.2847 92.5422 49.2847C69.5106 49.2847 50.8398 67.9555 50.8398 90.987C50.8398 114.019 69.5106 132.689 92.5422 132.689ZM90.647 59.7101C90.647 58.6632 91.4956 57.8146 92.5425 57.8146C93.5894 57.8146 94.4381 58.6632 94.4381 59.7101V117.525C94.4381 118.572 93.5894 119.42 92.5425 119.42C91.4956 119.42 90.647 118.572 90.647 117.525V59.7101ZM105.48 104.972C103.174 102.888 102.021 100.458 102.021 97.6803H106.683C106.733 99.2179 107.435 100.656 108.839 101.896C110.243 103.136 111.997 103.732 114.103 103.732C118.264 103.732 120.621 101.549 121.072 98.7219C121.323 95.349 118.816 93.4146 115.206 92.621L110.744 91.5298C105.129 90.0913 102.321 87.1153 102.321 82.6016C102.321 79.7743 103.424 77.4927 105.63 75.7071C107.836 73.8718 110.443 72.979 113.501 72.979C116.71 72.979 119.367 73.9214 121.473 75.7567C123.579 77.5919 124.631 79.9727 124.631 82.9984H119.969C119.969 79.6255 117.262 77.3935 113.451 77.3935C111.697 77.3935 110.193 77.8895 108.889 78.8319C107.636 79.7743 106.984 81.0144 106.984 82.552C106.984 84.9328 108.638 86.5201 111.897 87.3137L116.409 88.4049C122.977 90.0417 126.286 93.7618 125.634 99.1187C125.333 101.698 124.13 103.831 122.075 105.517C120.019 107.204 117.362 108.047 114.103 108.047C110.644 108.047 107.786 107.005 105.48 104.972ZM68.6209 109.943L58.4224 75.8226H63.1556L70.7679 102.168L78.3802 75.8226H83.0647L72.9638 109.943H68.6209Z" fill="white"/>
</svg>
