<svg width="19" height="20" viewBox="0 0 19 20" fill="none" xmlns="http://www.w3.org/2000/svg">
<path d="M6.63576 18.7733V15.7156C6.63576 14.9351 7.27315 14.3023 8.05941 14.3023H10.9336C11.3112 14.3023 11.6733 14.4512 11.9403 14.7163C12.2073 14.9813 12.3572 15.3408 12.3572 15.7156V18.7733C12.3549 19.0978 12.483 19.4099 12.7133 19.6402C12.9437 19.8705 13.257 20 13.5839 20H15.5448C16.4606 20.0023 17.3397 19.6428 17.9881 19.0008C18.6366 18.3588 19.001 17.487 19.001 16.5778V7.86686C19.001 7.13246 18.673 6.43584 18.1056 5.96467L11.435 0.675869C10.2746 -0.251438 8.61209 -0.221498 7.48637 0.746979L0.967989 5.96467C0.373717 6.42195 0.0185289 7.12064 0.000976562 7.86686V16.5689C0.000976563 18.4639 1.54836 20 3.45715 20H5.37327C6.0522 20 6.60397 19.4562 6.60889 18.7822L6.63576 18.7733Z" fill="#140F28"/>
</svg>
