<svg width="90" height="88" viewBox="0 0 90 88" fill="none" xmlns="http://www.w3.org/2000/svg">
<g filter="url(#filter0_d_341_190)">
<rect x="15.001" width="60" height="60" rx="30" fill="#3B68FF"/>
</g>
<path opacity="0.4" d="M54.2409 27.7187C53.8086 27.7187 53.4565 27.3649 53.4507 26.9246V25.7656C53.4648 24.7819 53.0938 23.8328 52.4198 23.1281C51.7457 22.4234 50.824 22.021 49.8581 22.0097H49.0153C48.5789 22.0097 48.2251 21.6494 48.2251 21.2049C48.2251 20.7604 48.5789 20.4 49.0153 20.4H49.8581C52.7427 20.4353 55.0629 22.8272 55.0627 25.7656V26.9139C55.0684 27.1253 54.9899 27.3301 54.845 27.4817C54.7001 27.6333 54.5013 27.7188 54.2936 27.7187H54.2409Z" fill="white"/>
<path opacity="0.4" d="M35.8032 27.7188C35.5947 27.7216 35.3936 27.6392 35.2451 27.4899C35.0966 27.3407 35.0131 27.1371 35.0131 26.9246V25.7656C34.9962 24.3485 35.537 22.9835 36.5149 21.9754C37.4928 20.9673 38.8263 20.3999 40.2176 20.4H41.0816C41.518 20.4 41.8717 20.7604 41.8717 21.2049C41.8717 21.6494 41.518 22.0097 41.0816 22.0097H40.2282C39.2541 22.0067 38.3198 22.4032 37.636 23.1098C36.9522 23.8164 36.5764 24.7736 36.5934 25.7656V26.9246C36.5876 27.3649 36.2356 27.7188 35.8032 27.7188Z" fill="white"/>
<path d="M55.0306 32.4727V35.4881C54.9969 38.3891 52.7055 40.7373 49.8577 40.7893H49.0043C48.7022 40.825 48.4067 40.681 48.2446 40.4188C48.0825 40.1567 48.0825 39.823 48.2446 39.5609C48.4067 39.2988 48.7022 39.1547 49.0043 39.1904H49.8577C51.8668 39.1845 53.4925 37.5238 53.4924 35.4774V32.4727H55.0306Z" fill="white"/>
<path d="M41.8718 39.9952C41.8662 40.4373 41.5157 40.7943 41.0817 40.8001H40.2177C37.3332 40.7648 35.013 38.3728 35.0132 35.4345V32.4727H36.5935V35.4881C36.5935 37.5304 38.2127 39.1893 40.2177 39.2011H41.0817C41.2903 39.1982 41.4913 39.2806 41.6398 39.4299C41.7883 39.5791 41.8718 39.7827 41.8718 39.9952Z" fill="white"/>
<path d="M57.001 31.6678C57.001 32.1123 56.6472 32.4726 56.2108 32.4726H33.7911C33.3547 32.4726 33.001 32.1123 33.001 31.6678C33.001 31.2233 33.3547 30.8629 33.7911 30.8629H56.1792C56.3942 30.8542 56.6034 30.9351 56.7585 31.087C56.9136 31.2389 57.001 31.4486 57.001 31.6678Z" fill="white"/>
<path opacity="0.4" d="M50.4898 28.9206V27.5362C50.4898 26.8674 50.2289 26.226 49.7646 25.753C49.3003 25.2801 48.6706 25.0144 48.0139 25.0144H41.9876C40.6202 25.0144 39.5117 26.1435 39.5117 27.5362V28.9206C39.5172 29.0842 39.6461 29.2155 39.8067 29.221H50.1948C50.3554 29.2155 50.4843 29.0842 50.4898 28.9206Z" fill="white"/>
<path d="M50.4898 32.4727V33.6745C50.4898 35.0673 49.3813 36.1964 48.0139 36.1964H41.9876C40.6202 36.1964 39.5117 35.0673 39.5117 33.6745V32.4727H50.4898Z" fill="white"/>
<defs>
<filter id="filter0_d_341_190" x="0.000976562" y="0" width="90" height="90" filterUnits="userSpaceOnUse" color-interpolation-filters="sRGB">
<feFlood flood-opacity="0" result="BackgroundImageFix"/>
<feColorMatrix in="SourceAlpha" type="matrix" values="0 0 0 0 0 0 0 0 0 0 0 0 0 0 0 0 0 0 127 0" result="hardAlpha"/>
<feOffset dy="15"/>
<feGaussianBlur stdDeviation="7.5"/>
<feColorMatrix type="matrix" values="0 0 0 0 0.160784 0 0 0 0 0.203922 0 0 0 0 0.815686 0 0 0 0.2 0"/>
<feBlend mode="normal" in2="BackgroundImageFix" result="effect1_dropShadow_341_190"/>
<feBlend mode="normal" in="SourceGraphic" in2="effect1_dropShadow_341_190" result="shape"/>
</filter>
</defs>
</svg>
